<svg xmlns="http://www.w3.org/2000/svg" xmlns:xlink="http://www.w3.org/1999/xlink" width="21" height="22" viewBox="0 0 21 22">
  <defs>
    <clipPath id="clip-path">
      <path id="Path_427" data-name="Path 427" d="M6.17-4.714A2.336,2.336,0,0,1,8.483-2.357,2.336,2.336,0,0,1,6.17,0,2.336,2.336,0,0,1,3.856-2.357,2.336,2.336,0,0,1,6.17-4.714Zm9.254,0a2.336,2.336,0,0,1,2.314,2.357A2.358,2.358,0,0,1,16.31-.179,2.283,2.283,0,0,1,13.788-.69a2.39,2.39,0,0,1-.5-2.569A2.314,2.314,0,0,1,15.424-4.714ZM6.17-3.143a.779.779,0,0,0-.771.786.779.779,0,0,0,.771.786.779.779,0,0,0,.771-.786A.779.779,0,0,0,6.17-3.143Zm9.254,0a.779.779,0,0,0-.771.786.779.779,0,0,0,.771.786.779.779,0,0,0,.771-.786A.779.779,0,0,0,15.424-3.143ZM1.111-22a2.322,2.322,0,0,1,2.244,1.784h0l.332,1.359H21l-1.542,6.333a2.335,2.335,0,0,1-1.72,1.721h0L6.316-8.061l.093.393a.774.774,0,0,0,.771.6H17.738V-5.5H7.18A2.322,2.322,0,0,1,4.913-7.284h0L4.627-8.454,1.882-19.831a.774.774,0,0,0-.771-.6H0V-22Zm17.954,4.714H4.072l1.889,7.7,11.452-2.742a.778.778,0,0,0,.578-.574h0Z" fill="none" clip-rule="evenodd"/>
    </clipPath>
  </defs>
  <g id="Group_641" data-name="Group 641" transform="translate(0 22)" clip-path="url(#clip-path)">
    <path id="Path_426" data-name="Path 426" d="M-5,5H26V-27H-5Z"/>
  </g>
</svg>
