<svg id="User" xmlns="http://www.w3.org/2000/svg" width="18.257" height="20" viewBox="0 0 18.257 20">
  <path id="Shape" d="M5.006,10.012a5.006,5.006,0,1,1,5.006-5.006A5.012,5.012,0,0,1,5.006,10.012Zm0-8.245a3.239,3.239,0,1,0,3.24,3.239A3.242,3.242,0,0,0,5.006,1.767Z" transform="translate(4.123 0)"/>
  <path id="Shape-2" data-name="Shape" d="M9.129,8.221A47.32,47.32,0,0,1,1.519,7.6,1.8,1.8,0,0,1,0,5.817v-1.4A4.423,4.423,0,0,1,4.418,0h.4a2.05,2.05,0,0,1,.64.1l1.02.333a8.514,8.514,0,0,0,2.65.422A8.522,8.522,0,0,0,11.78.435L12.8.1a2.05,2.05,0,0,1,.64-.1h.4a4.422,4.422,0,0,1,4.416,4.418v1.4A1.8,1.8,0,0,1,16.739,7.6,47.335,47.335,0,0,1,9.129,8.221ZM4.418,1.767a2.653,2.653,0,0,0-2.65,2.65v1.4a.042.042,0,0,0,.036.042,45.547,45.547,0,0,0,7.325.595,45.547,45.547,0,0,0,7.325-.595.043.043,0,0,0,.037-.042v-1.4a2.653,2.653,0,0,0-2.65-2.65h-.4a.292.292,0,0,0-.091.014l-1.02.333a10.281,10.281,0,0,1-3.2.51,10.281,10.281,0,0,1-3.2-.51L4.91,1.781a.3.3,0,0,0-.092-.014Z" transform="translate(0 11.779)"/>
</svg>
